<svg version="1.1" viewBox="0 0 1636 1700" width="1280" height="1280" xmlns="http://www.w3.org/2000/svg">
<path transform="translate(542,938)" d="m0 0h29l18 4 15 6 16 9 11 9 13 13 10 15 8 17 5 19 1 8v25l-3 16-6 17-5 11 10 2 16 8 9 6 8 7 7-1 8-2h4l-9-21-5-16-3-19v-16l2-17 5-18 10-21 11-16 7-8h2l2-4 11-9 14-9 17-8 12-4 16-3h32l15 3 18 6 17 9 12 9 10 9 8 8 10 14 8 15 6 17 3 12 2 24-2 20-4 16-6 15-5 11 13 4h6l11-10 16-9 12-4h4l-8-18-5-17-2-14v-13l2-17 5-17 6-14 9-14 9-11 7-7 15-11 16-8 14-5 15-3h29l15 3 12 4 16 8 11 7 12 11 10 11 8 13 8 17 5 19 1 9v20l-3 17-6 18-5 11 15 5 15 8 11 9 7 7 7 10 8 16 4 13 2 13v14l-2 17-5 23-7 19-11 21-10 14-11 13-11 11-19 14-16 9-16 7-15 5-18 4-22 2h-10l-22-2-17-4-18-6-16-8-14-8-13-10-5-2-6 10-8 10-9 11-8 8-11 9-14 10-15 9-20 9-23 7-23 4-14 1h-12l-23-2-22-5-18-6-25-12-16-11-10-8-12-11-7-7-11-14-7-10-2-2-18 13-16 9-13 6-21 7-22 4-14 1-25-1-25-5-18-6-17-8-16-10-16-13-14-14-11-14-8-13-8-16-6-15-5-18-3-21v-22l3-15 5-14 9-15 11-12 8-7 13-8 16-6h4l-8-19-5-18-1-6v-28l3-15 5-15 9-17 10-13 4-5h2l1-3 14-11 14-8 11-5 13-4zm4 19-16 3-15 6-15 9-13 12-10 13-9 19-4 15-1 8v16l4 20 5 12 6 11 8 10 12 12 14 9 16 7 13 3 10 1h11l18-3 14-5 16-9 14-12 8-10 8-13 5-13 3-12 1-9v-14l-3-18-6-16-9-15-12-13-12-9-17-9-17-5-7-1zm268 0-17 3-15 5-15 8-13 10-11 11-9 13-8 16-5 16-2 11v25l4 18 5 13 7 13 10 13 11 11 16 11 15 7 13 4 13 2h22l20-4 15-6 15-9 13-11 7-7 7-10 8-14 5-14 3-13 1-8v-17l-3-18-5-15-9-17-11-14-12-11-16-10-16-7-15-4-8-1zm268 0-16 3-13 5-13 7-11 9-10 10-9 14-6 13-5 21v22l4 18 7 16 8 12 11 12 15 11 17 8 16 4 10 1h10l19-3 16-6 15-9 13-12 7-8 8-13 6-15 3-14v-25l-3-15-6-15-8-13-9-11-12-10-16-9-13-5-16-3zm-616 167-16 5-11 6-11 9-8 10-8 16-3 12-1 14 2 20 5 21 6 16 10 19 12 16 12 13 14 11 15 10 19 9 20 6 19 3h29l18-3 17-5 14-6 14-8 17-12 4-3-1-7-7-20-6-25-2-17v-21l4-20 7-16 7-12 11-13 12-10-1-3-17-10-16-5h-6l-10 10-15 11-16 8-15 5-16 3h-26l-19-4-19-8-16-10-15-14zm536 0-16 5-13 7-5 4v3l9 7 5 5h2l2 4 8 11 8 16 5 17 2 17-1 20-3 20-7 25-6 15 1 3 16 12 15 9 15 7 20 6 19 3h28l23-4 18-6 16-8 13-8 9-7 10-9 9-9 10-13 10-17 8-19 5-20 2-16v-18l-2-12-5-13-7-11-11-11-14-9-14-5-10-1-7 7-14 11-14 8-12 5-14 4-11 2h-26l-19-4-15-6-13-7-13-10-8-8-3-2zm-278 20-15 4-16 8-10 8-7 7-7 10-6 12-4 12-1 6v28l3 18 6 21 7 17 9 16 10 14 9 10 7 8 8 7 15 11 17 10 19 8 16 5 16 3 9 1h31l19-3 21-6 18-8 16-9 14-10 13-12 9-9 13-17 9-15 8-19 6-20 3-16 1-10v-20l-3-15-7-16-8-11-8-9-13-9-12-6-15-4h-7l-12 12-13 10-21 11-15 5-15 3-9 1h-17l-19-3-17-5-17-8-13-9-13-11-6-6z" fill="#181818"/>
<path transform="translate(523,408)" d="m0 0h601l13 2 11 4 11 6 11 9 7 8 8 14 4 11 2 13v317l-2 14-5 14-8 13-9 10-13 9-12 5-11 3-10 1-97 1-9 15-10 17-12 20-9 14-5 4-8-1-7-9-10-17-13-22-12-20-1-1h-209l-15 26-15 25-9 14-6 5-7-1-7-8-17-29-13-22-6-10-101-1-16-3-14-6-12-9-8-8-9-14-5-13-2-11v-327l3-13 8-16 8-10 8-8 13-8 13-5zm14 19-18 1-15 5-13 10-8 11-5 11-2 13v314l2 12 4 9 6 9 9 9 10 6 13 4 25 1h70l19 1 4 4 15 26 9 15 8 14h3l17-29 10-17 7-11 2-2h230l4 5 17 29 13 22 2 3 3-1 10-17 12-20 11-18 3-3 64-1h37l18-2 10-4 10-7 8-8 6-10 4-15v-324l-4-14-7-11-9-9-10-6-13-4-9-1z" fill="#151515"/>
<path transform="translate(1013,566)" d="m0 0h18l16 4 15 8 12 11 6 8 7 14 4 16v14l-3 14-5 12-7 11-10 10-11 7-12 5-12 3h-19l-15-4-12-6-10-8-9-10-8-15-4-13-1-8v-9l3-16 5-11 6-10 11-12 11-7 11-5zm5 19-14 3-11 6-7 6-7 10-4 9-2 8v15l4 13 6 10 9 9 16 8 11 2 13-1 12-4 11-7 8-9 6-12 2-8v-16l-4-14-6-9-4-5-8-6-12-6-12-2z" fill="#191919"/>
<path transform="translate(617,566)" d="m0 0h18l13 3 16 8 11 9 8 10 8 16 3 12v21l-3 12-8 16-9 11-12 9-12 6-16 4h-18l-15-4-14-7-12-11-6-7-5-8-5-13-2-9v-19l4-15 7-14 10-12 11-8 12-6zm4 19-16 4-11 7-7 7-8 14-3 14 1 13 4 12 7 11 9 8 14 7 13 2 16-2 14-7 10-9 7-11 3-10 1-11-2-14-7-14-9-10-10-6-11-4-7-1z" fill="#191919"/>
<path transform="translate(815,566)" d="m0 0h19l15 4 13 7 10 8 8 9 6 10 5 14 1 5v22l-3 12-4 9-6 10-7 8-13 10-11 5-16 4h-18l-15-4-12-6-10-8-7-7-8-13-5-13-2-11v-12l3-16 8-16 7-9 8-8 13-8 15-5zm4 19-16 4-10 7-6 5-6 9-4 8-2 8v17l3 10 6 11 11 11 14 7 12 2 13-1 12-4 10-7 7-7 6-10 3-8 1-6v-12l-3-13-6-11-10-10-10-6-9-3z" fill="#181818"/>
<path transform="translate(525,457)" d="m0 0h126l4 2 2 4v7l-3 5-2 1-126 1-1 53-5 5h-9l-4-4-1-2v-54l4-8 5-5 6-4z" fill="#161616"/>
<path transform="translate(947,1213)" d="m0 0h8l5 4 1 3v12l-3 21-8 24-10 19-9 12-11 12-7 7-9 6h-6l-6-5-1-7 4-6 11-9 10-11 10-15 7-15 5-17 2-12 1-16 4-6z" fill="#1A1A1A"/>
<path transform="translate(746,964)" d="m0 0 2 1-21 21v-3l7-8h2l2-4z" fill="#A5A5A5"/>
<path transform="translate(675,1145)" d="m0 0 2 1-17 17v-3l10-11z" fill="#9B9B9B"/>
<path transform="translate(981,579)" d="m0 0 2 1-16 16v-3l11-12z" fill="#9F9F9F"/>
<path transform="translate(485,962)" d="m0 0 2 1-17 17v-3l5-6h2l1-3z" fill="#ABABAB"/>
<path transform="translate(584,579)" d="m0 0 2 1-14 14v-3l6-7z" fill="#9D9D9D"/>
<path transform="translate(903,1308)" d="m0 0 2 1-12 12-1-2 5-5z" fill="#B7B7B7"/>
</svg>